PathFileType	4	(X/Y/Z)	C:/Users/opensim2020/Desktop/walking_exp_matlab/subject03_walking10_straight_02.trc	
DataRate	CameraRate	NumFrames	NumMarkers	Units	OrigDataRate	OrigDataStartFrame	OrigNumFrames	
100.00	100.00	4	45	mm	100.00	1901	347	
Frame#	Time	LFHD			RFHD			LBHD			RBHD			C7			T10			CLAV			STRN			RBAK			LSHO			LUPA			LELB			LFRM			LWRA			LWRB			LFIN			RSHO			RUPA			RELB			RFRM			RWRA			RWRB			RFIN			LASI			RASI			LPSI			RPSI			LTHI			LKNE			LTIB			LANK			LHEE			LTOE			RTHI			RKNE			RTIB			RANK			RHEE			RTOE			*39			*40			*41			*42			*43			*44			
		X1	Y1	Z1	X2	Y2	Z2	X3	Y3	Z3	X4	Y4	Z4	X5	Y5	Z5	X6	Y6	Z6	X7	Y7	Z7	X8	Y8	Z8	X9	Y9	Z9	X10	Y10	Z10	X11	Y11	Z11	X12	Y12	Z12	X13	Y13	Z13	X14	Y14	Z14	X15	Y15	Z15	X16	Y16	Z16	X17	Y17	Z17	X18	Y18	Z18	X19	Y19	Z19	X20	Y20	Z20	X21	Y21	Z21	X22	Y22	Z22	X23	Y23	Z23	X24	Y24	Z24	X25	Y25	Z25	X26	Y26	Z26	X27	Y27	Z27	X28	Y28	Z28	X29	Y29	Z29	X30	Y30	Z30	X31	Y31	Z31	X32	Y32	Z32	X33	Y33	Z33	X34	Y34	Z34	X35	Y35	Z35	X36	Y36	Z36	X37	Y37	Z37	X38	Y38	Z38	X39	Y39	Z39	X40	Y40	Z40	X41	Y41	Z41	X42	Y42	Z42	X43	Y43	Z43	X44	Y44	Z44	X45	Y45	Z45	

87	0.860	-921.82123	509.42395	1601.72314	-1053.17078	528.94330	1605.46899	-905.88208	642.63080	1580.56433	-1036.27454	656.54828	1582.83044	-955.38586	703.80133	1417.52307	-958.44720	749.23859	1103.12329	-971.73828	588.16638	1334.14575	-971.15509	549.51337	1168.60901	-1045.82190	775.73236	1241.58423	-813.11322	609.66095	1371.73962	-734.19550	575.89087	1183.92798	-720.48816	536.38586	1068.07129	-729.29236	471.20825	956.60736	-766.52777	419.73169	852.21417	-712.08276	432.51498	850.60699	-725.97839	387.15887	781.37158	-1124.62317	650.68433	1359.16553	-1200.19604	657.38330	1137.63147	-1216.57104	640.57068	1026.69568	-1221.63538	618.11237	891.75122	-1190.66125	580.23462	798.06726	-1231.42651	615.30896	791.78247	-1225.43811	586.88269	722.54602	-851.35876	579.94757	938.22699	-1089.77942	592.15802	935.74115	-895.76306	744.58594	963.21533	-1044.37134	750.92493	962.62671	-820.38770	653.19849	638.23761	-861.70581	667.01697	461.51089	-864.09546	736.61658	276.96927	-910.15887	771.86584	69.21402	-947.70154	812.96338	35.25746	-935.04126	619.98663	29.63362	-1139.52551	579.08667	645.84155	-1111.89233	500.19525	482.88098	-1113.34534	543.86011	296.54507	-1068.60852	575.03186	83.09534	-1012.11578	616.24011	51.52587	-1066.94116	440.79843	40.56390	-962.09955	587.93445	1678.32007															 
88	0.870	-923.14130	502.29486	1601.12854	-1054.47119	522.22021	1604.37988	-906.73615	635.39404	1580.00989	-1037.05139	649.76868	1581.80884	-955.76709	696.82550	1416.87439	-958.97479	742.75446	1102.53027	-972.16168	581.27991	1333.29016	-971.41656	542.93726	1167.70898	-1046.16772	769.02332	1241.02600	-813.58307	602.68005	1371.11731	-734.42963	568.24902	1183.64282	-720.67017	528.03870	1068.14941	-729.82489	461.53589	957.58173	-767.58887	408.64478	854.13501	-713.17096	421.41809	852.05365	-727.35645	374.88766	783.77454	-1125.00659	643.84515	1358.32971	-1200.19812	651.33069	1136.70288	-1216.38550	634.92432	1025.65344	-1221.14917	612.74152	890.65570	-1190.08008	574.96411	796.99390	-1230.73657	610.15302	790.61615	-1224.58167	581.90155	721.34723	-851.45911	573.66248	937.67560	-1089.96204	585.41852	934.77301	-896.25098	738.25732	962.52368	-1044.75513	744.30890	961.72955	-820.73627	648.40210	637.86713	-861.71045	663.60767	461.25500	-864.14935	734.82532	277.15814	-910.24579	771.64081	69.65758	-947.78625	812.92950	35.87373	-935.00696	619.85077	29.59726	-1139.55542	573.27692	644.80548	-1111.62122	492.78558	482.41565	-1113.09729	530.12372	295.07272	-1068.81580	552.59021	80.56741	-1012.08594	592.65051	47.86883	-1066.65918	416.85959	41.47884	-970.38464	579.26898	1673.63538															 
89	0.880	-924.43774	495.05505	1600.55408	-1055.78125	515.44568	1603.35889	-907.50238	628.11707	1579.40540	-1037.82495	642.84784	1580.73230	-956.22180	689.84137	1416.22437	-959.53088	736.28387	1101.93677	-972.57922	574.37952	1332.48059	-971.79382	536.31573	1166.84790	-1046.52942	762.26740	1240.40710	-814.12109	595.57971	1370.37000	-734.81378	560.56561	1183.31702	-720.99188	519.89471	1068.06958	-730.54346	452.18613	958.35516	-768.80920	397.94504	855.86633	-714.38824	410.64301	853.34235	-728.90955	363.00696	785.97485	-1125.43652	637.02600	1357.51038	-1200.23352	645.08936	1135.78101	-1216.16675	629.18640	1024.64343	-1220.68921	607.35760	889.55261	-1189.43945	569.70709	795.83124	-1229.97290	604.93793	789.47021	-1223.62622	576.91919	720.19916	-851.56030	567.28528	937.06195	-1090.25183	578.60956	933.86700	-896.75250	731.81653	961.80316	-1045.28125	737.62201	960.76984	-820.90692	643.66150	637.58057	-861.69165	660.19403	460.96545	-864.15277	733.00714	277.38101	-910.30670	771.43243	70.08156	-947.68262	813.14240	36.74364	-934.67041	619.58374	29.57294	-1139.69434	567.48547	643.66223	-1111.04993	485.76541	481.75485	-1112.90771	516.64685	293.81992	-1069.01770	530.41254	78.43815	-1012.20612	569.32684	44.84365	-1066.44824	393.41586	42.23084	-964.56317	571.85175	1678.72290															 
90	0.890	-925.78699	487.75027	1599.87683	-1057.05444	508.50763	1602.25085	-908.41840	620.74908	1578.85168	-1038.56250	635.90167	1579.68982	-956.69952	682.77002	1415.50244	-960.08307	729.59003	1101.28906	-973.08667	567.40057	1331.66138	-972.17651	529.57819	1165.94556	-1046.96106	755.42017	1239.78027	-814.69238	588.56512	1369.68542	-735.22455	552.97040	1182.89600	-721.35876	511.82449	1067.84912	-731.33228	443.00641	958.98560	-770.12427	387.55908	857.39099	-715.71069	400.22336	854.37842	-730.51270	351.55496	787.97162	-1125.97937	630.04980	1356.67542	-1200.20947	638.75189	1134.83301	-1215.94934	623.27112	1023.55829	-1220.19592	601.82813	888.42804	-1188.76172	564.33734	794.75781	-1229.19897	599.73157	788.34705	-1222.65881	571.92505	718.95264	-851.81207	560.83099	936.44250	-1090.51892	571.73517	932.93439	-897.36182	725.08453	961.05188	-1045.76282	730.85608	959.81519	-821.35358	638.67169	637.20050	-861.65985	656.49872	460.66257	-864.15149	731.07526	277.61649	-910.33618	771.16809	70.47416	-947.70587	813.04456	37.47428	-935.07568	619.73761	29.34098	-1139.91980	561.65350	642.45374	-1110.73596	478.87384	481.12537	-1112.86218	503.53412	292.72754	-1069.13916	508.52301	76.62831	-1012.23932	546.47559	42.56844	-1066.35645	370.51901	42.85227	-973.51251	564.96295	1672.21472															 
